<svg xmlns="http://www.w3.org/2000/svg" viewBox="0 0 800 600">
  <rect width="800" height="600" fill="#e9c46a" />
  <g>
    <!-- Hexagon Tiles -->
    <polygon points="200,150 250,105 300,150 300,240 250,285 200,240" fill="#2a9d8f" stroke="#264653" stroke-width="5" />
    <polygon points="300,150 350,105 400,150 400,240 350,285 300,240" fill="#e76f51" stroke="#264653" stroke-width="5" />
    <polygon points="400,150 450,105 500,150 500,240 450,285 400,240" fill="#e9c46a" stroke="#264653" stroke-width="5" />
    <polygon points="250,285 300,240 350,285 350,375 300,420 250,375" fill="#f4a261" stroke="#264653" stroke-width="5" />
    <polygon points="350,285 400,240 450,285 450,375 400,420 350,375" fill="#2a9d8f" stroke="#264653" stroke-width="5" />
    <polygon points="450,285 500,240 550,285 550,375 500,420 450,375" fill="#e76f51" stroke="#264653" stroke-width="5" />
  </g>
  
  <!-- Settlements and Roads -->
  <circle cx="300" cy="150" r="15" fill="#e63946" stroke="#264653" stroke-width="3" />
  <circle cx="400" cy="240" r="15" fill="#1d3557" stroke="#264653" stroke-width="3" />
  <line x1="300" y1="165" x2="300" y2="225" stroke="#e63946" stroke-width="8" />
  <line x1="400" y1="225" x2="350" y2="275" stroke="#1d3557" stroke-width="8" />
  
  <!-- Dice and Resources -->
  <rect x="50" y="400" width="60" height="60" rx="10" fill="white" stroke="#264653" stroke-width="3" />
  <circle cx="65" cy="415" r="8" fill="#264653" />
  <circle cx="80" cy="430" r="8" fill="#264653" />
  <circle cx="95" cy="445" r="8" fill="#264653" />
  
  <rect x="130" y="400" width="60" height="60" rx="10" fill="white" stroke="#264653" stroke-width="3" />
  <circle cx="160" cy="430" r="8" fill="#264653" />
  
  <!-- Resource cards -->
  <rect x="600" y="150" width="130" height="180" rx="10" fill="#2a9d8f" stroke="#264653" stroke-width="3" />
  <rect x="610" y="165" width="110" height="150" rx="5" fill="#fff" stroke="#264653" stroke-width="2" />
  <text x="665" y="240" font-family="Arial" font-size="24" text-anchor="middle" fill="#264653">WOOD</text>
  
  <rect x="615" y="200" width="130" height="180" rx="10" fill="#e76f51" stroke="#264653" stroke-width="3" />
  <rect x="625" y="215" width="110" height="150" rx="5" fill="#fff" stroke="#264653" stroke-width="2" />
  <text x="680" y="290" font-family="Arial" font-size="24" text-anchor="middle" fill="#264653">BRICK</text>
  
  <rect x="630" y="250" width="130" height="180" rx="10" fill="#f4a261" stroke="#264653" stroke-width="3" />
  <rect x="640" y="265" width="110" height="150" rx="5" fill="#fff" stroke="#264653" stroke-width="2" />
  <text x="695" y="340" font-family="Arial" font-size="24" text-anchor="middle" fill="#264653">WHEAT</text>
</svg>